<svg id="d38c7cae-5262-4bf1-89dc-da5a63ed2dc0" data-name="ab7c0678-0460-47ea-b598-090e6c12d5a1" xmlns="http://www.w3.org/2000/svg" viewBox="0 0 749.7 480.3"><title>bgPattern</title><path d="M348.8,159.8l3.4-10.4,0.8-1.7-12.6-2.5-1.5,1.9-1.5-.2-1.1-3.5-20,5.9L310,173.8l1.7,5.1,8.7-.6-17.8,8.7-2.8-5.4-1.6,1.2-3.7,3.5,3.5,3-2.1,2-9.9-5-1.4-2.7,3.8,2.4,1.8-.7,2.7-1.7-6.4-8.5,7.9,7.2,2-1.4,2.1-1.9-11.7-13.4,13.7,12.2a33.1,33.1,0,0,0,2.9-5.4l-32.3-26.9-17.7,14.3,5.7,0.3,4.4,0.3a6.8,6.8,0,0,1,6.5-6.3,7.1,7.1,0,1,1-6.5,7.1v-0.3l-10.5.2,23,31.9,8.2-3.4,2-.6,9.7,5.1,31-15.6,17.5-6.6,1.5-6.4-8.6,1.1,1.1-6.6h10.1Z"/><path d="M400.9,235s7.5-8.8,7.5-10.7,0.1-3.5-1.9-4.5-5.6,2.5-5.6,2.5-2.8-4.2-5.8-2.5-1.9,2.5-2,4.5S400.9,235,400.9,235Z"/><path d="M176.2,122.1c0.7,6.5,18.8,9.5,40.4,6.6s38.6-10.3,37.9-16.8-18.8-9.5-40.4-6.6S175.5,115.6,176.2,122.1Zm64.9-8.4c0.5,4.3-10.7,9.2-24.9,11.1s-26.1-.1-26.6-4.4,10.7-9.2,24.9-11.1S240.6,109.4,241,113.7Z"/><path d="M545.3,16.7L525.3,9l-27.2,6.2-17.7,4.2,49.6,22.2,63.4-11.4s13.9-3.8,22-7.2c4.9-2.1,5.9-4.5,5.3-4.4s-8.1-8.7-35-9.2c-17.8-.2-30.8,2.9-29.1,6.8s17.6,7.2,35.4,7.4a127.3,127.3,0,0,0,12.9-.5c-8,2.9-32.9,6.6-56.5,4.6l-16-7,10,1.4Z"/><path d="M121.7,23.1c8,3.4,22,7.2,22,7.2l60.6,11.4,47.8-21.5-13.2-3.6-30.1-8-17,8.2,3,5.4,10-1.4-16.6,7c-23.6,2-47.9-1.7-55.9-4.6a127.3,127.3,0,0,0,12.9.5c17.8-.2,33.6-3.5,35.4-7.4s-11.3-7-29.1-6.8c-27,.5-35.5,8.6-35,9.2S116.7,21,121.7,23.1Z"/><polygon points="444.6 71.8 457.8 73 474.4 75 471.8 78.5 453.2 77.3 467.7 89.3 511.1 90.1 538 72.6 457.6 68.2 466 62.7 452.3 29.8 440.4 46.9 444.6 59.1 440.4 58.2 444.6 71.8"/><polygon points="271 62.7 279.4 68.2 201.9 72.6 225.9 90.1 272.8 88.7 284.4 77.3 265.2 78.5 262.6 75 288.1 71.9 296.6 46.9 295.4 45.1 295.6 45.1 300 45.1 303.2 41.6 284.1 28.6 271 62.7"/><polygon points="582.6 99.3 573.4 171.4 586 181.5 588.3 171 605.3 151.1 608.9 144.2 588.3 155.9 583.1 170.1 579.7 168 585.4 127.3 599 135.8 593.8 142.9 590.9 150.3 631.2 126.7 637.5 117.8 623.2 113.3 582.6 99.3"/><path d="M725.1,237.7h-2.7l3.8-29.8L715,205.4l-6.2,11.9-1.4-13.6-7.6-1.7,2.3,35.7h-5.7l-2.8-37.6s-41,71.8-81.9,6.9c-13.1-20.8-11.3-35.5-11.3-35.5l5-15.6-13.7,16.8L589.4,189l-20.5-16.2L578,98l-58.4-4.4L487,140.9,461.8,93.6H428.4l-5.3,8.1L433.2,119l3.3-.8V111l6.2,11.4h-1.2l-3.2,9.2,7-4.5,1.3,2.3-11.5,7.6,7.9,1.8,6.7-3,1.5,1.9v2.7l-1.7-1.7-17.8,9.1,8.3,4.2,15.1-3.2,4.6,5,29.3-6.4,26.3-37.1,19.8,1.8,0.3,0.7-6.9,2,3,4.3,22.2,12.6,2.7-17.7,5.3,0.5-5.7,43.4-0.6-16.4-8.6-7.1-3.1,50.4,9.4-5.1L588.3,207l1.1,30.7h-5.7V210.1l-31.4-23.7-8.7,5L542,204.5l12,0.6v-1.9l2.3,0.3,21.9,18.6-0.2,8.4H564.8l-8.3-10.4,7.1,3,2-5-11.1-8.1H544.2l21.3,27.6h-5.9L542,215.4l-1.1,22.3h-5l3.2-50L507,212l5.9,25.7h-5.4l-0.8-3.6,2.2-1.9-1.7-7.4-2.2-.7-2.5-10.6-27.5,6.6,4.4,17.6h-8.1l-1.7-7.1,3.7-2-1.5-8-7.3,1.1-13.5,1.8-2.9,14.2h-4.2l1.1-6.6-3,.2,1.6-7.9-25.3,1.9,1.2,8.2,0.8,4.3h-4.8l-1.7-15,12.2-1c57.3-3.1,98.2-11.5,85-33.8-7.5-12.7-20-35.8-20-35.8L462,158c19.9,27.6,17.5,36.9,17.5,36.9s1.8,37.4-62.7,11.4l-4.6,1.5c9.8-8.5,17.4-16.3,22.4-24.9l1.4-2.1-0.6,3.1,7.2,0.7,1.5-2.7-1.9-7,6.2,1.1,6.4-2.5-12.4-9c-0.6-1.6.6-.6,0.6-0.6l1.6-.7,2.5-10.3-7.3,1.5-12.1,4.3c-5.6-.4-10,0.3-19.9,1.5l0.6-2.7-15.5-3.8-5.7,2.6,3.1-2.9,5.4-27.5-10,3.6-19,27.6,1.7-19.6-10.6,10.3L348.2,175c-14,4.9-23,5.8-47.9,20.7l33.1,1.6h0.2l7.5,1,5.1-3.9,8.1,5.9,1.7-7.2-1.2-2c1.4-.4,3.2-1.3,4.5-1.7l8.7,7.9,2.1-7.2-1.4-2.6c1.7-.4.9-0.8,2.5-1.1l6.8,5.4,5.1-7.7c12-1.7,17.6-.4,21.5,2.5,1.4,1,1.4,5.1.5,10.3-4.8,11.1-17.3,19-38.9,22a311.8,311.8,0,0,1-39.6,1c-139.8-5.9-197.8-26.6-195-41.4,1.2-6.2,26.1-10.9,58.7-14V158c-41.2-.3-78.5.9-108.4,3.5l8.3,12.7,21.7-7.4L98.5,186.6l13.2,20.2-21.6-7.9-7.4,10.9c44.5,7.9,110.4,13.9,199.8,14.9,42.9,0.5,61.6-1.3,88.7-2.2l11.3-1.7-0.7,5.1L380,225l-4.1.6,6.1,11.9v0.3H369.6l-1.1-8.5,2.5-3.3-14.1.6-1,3.9H340.2l2.9,3.7v3.2h-16l-1.8-10.3h-8.7l-0.9,2.5,1.8,1.8-1.7,4.1-0.6-3.9-6.9-2.5-4,7.2-10.9.3,0.6-3.6,5.6-1.9,0.6-3.4-4.3-.5H267.4l-3.5,10.4h-5.6l2.8-10-34.1-1-0.9,8.2H206.7l3.5-2.3-3.1-6.1-26.3-1.2-2.9,10.3-6.9-.2,2.3-11h-6.3l-8.8,10-10.1.5,7.4-4.4,1.1-3.9-10.7.5,1.8-4.4-28.9-1.7-8.5,16.6h-6.1l9.4-17.7-25.9-3.7H81.6l6.2,4.3,2.5,17.1H84.8c-0.5-3.9-1.2-8.9-2-13.3S65,213.3,65,213.3l-3,24.5H56.8l3.5-24.8L45,209.4,44,213.8l-11.6-3.2,4.6,27.1H32.6l-4.4-31.6L42.5,210l0.6-4-16.8-6.3-18-9.1s-5.7-9.4-4.7-11.9,7.6-7.5,7.6-7.5L0,171.8v18l2.8-2.7,3.7,5.6-2.9,45H0v4.8H3.7l2.9,45-3.7,5.6L0,290.5v18l11.2,0.6s-6.6-5-7.6-7.5,4.7-11.9,4.7-11.9l18-9.1,16.8-6.3-0.6-4-14.3,3.9,4.4-31.6h4.3l-4.6,27.1L44,266.5,45,271l15.3-3.6-3.5-24.8H62l3,24.5s15.5-6.2,17.7-11.2,1.5-9.5,2-13.3h5.5l-2.5,17.1-6.2,4.3h6.2l25.9-3.7-9.4-17.7h6.1l8.5,16.6,28.9-1.7-1.8-4.4,10.7,0.5-1.1-3.9-7.4-4.4,10.1,0.5,8.8,10h6.3l-2.3-11,6.9-.2,2.9,10.3,26.3-1.2,3.1-6.1-3.5-2.3h19.5l0.9,8.2,34.1-1-2.8-10h5.6l3.5,10.4h28.7l4.3-.5-0.6-3.4-5.6-1.9-0.6-3.6,10.9,0.3,4,7.2,6.9-2.5,0.6-3.9,1.7,4.1-1.8,1.8,0.9,2.5h8.7l1.8-10.3h16v3.2l-2.9,3.7h15.7l1,3.9,14.1,0.6-2.5-3.3,1.1-8.5h12.3v0.3l-6.1,11.9,4.1,0.6,1.7-.8,0.7,5.1-11.3-1.7c-27.1-1-45.8-2.8-88.7-2.2-89.4,1.1-155.3,7.1-199.8,14.9l7.4,10.9,21.6-7.9L98.5,293.8,112,313.7l-21.7-7.4L82,318.9c29.8,2.6,67.1,3.8,108.4,3.5v-6.7c-32.6-3.1-57.5-7.8-58.7-14-2.8-14.8,55.1-35.6,195-41.4a311.8,311.8,0,0,1,39.6,1c21.6,3,34.1,10.8,38.9,22,0.9,5.2.9,9.3-.5,10.3-3.9,2.8-9.5,4.2-21.5,2.5l-5.1-7.7-6.8,5.4c-1.6-.3-0.8-0.7-2.5-1.1l1.4-2.6-2.1-7.2-8.7,7.9c-1.3-.3-3.1-1.3-4.5-1.7l1.2-2-1.7-7.2-8.1,5.9-5.1-3.9-7.5,1h-0.2l-33.1,1.6c24.9,14.9,33.9,15.8,47.9,20.7l9.4,27.2,10.6,10.3-1.7-19.6,19,27.6,10,3.6-5.4-27.5L387,324l5.7,2.6,15.5-3.8-0.6-2.7c9.9,1.2,14.3,1.9,19.9,1.5l12.1,4.3,7.3,1.5-2.5-10.3-1.6-.7s-1.3,1-.6-0.6l12.4-9-6.4-2.5-6.2,1.1,1.9-7-1.5-2.7-7.2.7,0.6,3.1-1.4-2.1c-5-8.6-12.7-16.3-22.4-24.9l4.6,1.5c64.5-26,62.7,11.4,62.7,11.4s2.4,9.3-17.5,36.9l28.8,5.9s12.5-23.1,20-35.8c13.2-22.3-27.7-30.7-85-33.8l-12.2-1,1.7-15h4.8l-0.8,4.3-1.2,8.2,25.3,1.9-1.6-7.9,3,0.2-1.1-6.6h4.2l2.9,14.2,13.5,1.8,7.3,1.1,1.5-8-3.7-2,1.7-7.1h8.1l-4.4,17.6,27.5,6.6,2.5-10.6,2.2-.7,1.7-7.4-2.2-1.9,0.8-3.6h5.4L507,268.3,539,292.6l-3.2-50h5l1.1,22.3,17.6-22.3h5.9l-21.3,27.6h10.4l11.1-8.1-2-5-7.1,3,8.3-10.4H578l0.2,8.4-21.9,18.6-2.3.3v-1.9l-12,.6,1.7,13.1,8.7,5,31.4-23.7V242.6h5.7l-1.1,30.7-34.9,27.4-9.4-5.1L547,346l8.6-7.1,0.6-16.4,5.7,43.4-5.3.5-2.7-17.7-22.2,12.6-3,4.3,6.9,2-0.3.7-19.8,1.8-26.3-37.1L460,326.5l-4.6,5-15.1-3.2-8.3,4.2,17.8,9.1,1.7-1.7v2.7l-1.5,1.9-6.7-3-7.9,1.8,11.5,7.6-1.3,2.3-7-4.5,3.2,9.2h1.2l-6.2,11.4v-7.1l-3.3-.8-10.1,17.2,5.3,8.1h33.4L487,339.4l32.7,47.4,58.4-4.4-9.1-74.8,20.5-16.2,2.3,16.2,13.7,16.8-5-15.6s-1.8-14.7,11.3-35.5c40.8-64.9,81.9,6.9,81.9,6.9l2.8-37.6h5.7l-2.3,35.7,7.6-1.7,1.4-13.6,6.2,11.9,11.2-2.5-3.8-29.8h2.7l3.7,22.3h20.9V215.4H728.8ZM373.3,169.5l10-7.7a9.3,9.3,0,0,0,1,2.7,4.7,4.7,0,0,0,1.8,1.2Zm15-4.7a2.4,2.4,0,1,1,2-2.4A2.2,2.2,0,0,1,388.3,164.8Zm12.5-2.5-2.3,1.9a27.9,27.9,0,0,0-5.9.2,3.4,3.4,0,0,0,.5-0.9,1.8,1.8,0,0,0,.2-0.9v-0.2a22.2,22.2,0,0,0-.9-3.8c2.2,0,8.5,2.4,8.7,2.4S400.8,162.2,400.8,162.3ZM384.3,315.8a9.3,9.3,0,0,0-1,2.7l-10-7.7,12.8,3.7A4.7,4.7,0,0,0,384.3,315.8Zm4.1,4.5a2.4,2.4,0,1,1,2-2.4A2.2,2.2,0,0,1,388.3,320.3Zm4.1,1.4a22.2,22.2,0,0,0,.9-3.8v-0.2a1.8,1.8,0,0,0-.2-0.9,3.4,3.4,0,0,0-.5-0.9,27.9,27.9,0,0,0,5.9.2l2.3,1.9c-0.1,0,.3,1.3.3,1.3S394.7,321.7,392.4,321.7ZM18.1,275.3a6.5,6.5,0,0,1,0-13A6.5,6.5,0,0,1,18.1,275.3Zm30.1-15.2a4.6,4.6,0,1,1,4.2-4.5A4.4,4.4,0,0,1,48.1,260.1Zm51-3.6a3.4,3.4,0,1,1,3.1-3.4A3.3,3.3,0,0,1,99.1,256.5Zm88.5-3.7a3.4,3.4,0,1,1,3.1-3.4A3.3,3.3,0,0,1,187.6,252.7Zm86.3-2.1a3.7,3.7,0,1,1,3.4-3.7A3.6,3.6,0,0,1,274,250.6Zm88.6,0.1a3.4,3.4,0,1,1,3.1-3.4A3.3,3.3,0,0,1,362.6,250.7ZM410.3,261l-6.7,6.5a70.6,70.6,0,0,0-6.8-3.4c-3.8-1.7-10.4-3.7-10.4-3.7l4.1-.4-0.6-6.1s4.4-6.2,8.5-11.3h4.5l8.3,9.6,0.2,6.6,1.2,3.2Zm21-8.9a3.4,3.4,0,1,1,3.1-3.4A3.3,3.3,0,0,1,431.3,252.1Zm60.5,4.9a4.6,4.6,0,1,1,4.2-4.5A4.4,4.4,0,0,1,491.8,257Zm37.8,20.6a4.6,4.6,0,1,1,4.2-4.5A4.4,4.4,0,0,1,529.6,277.6Zm69.3,3.7a4.6,4.6,0,1,1,4.2-4.5A4.4,4.4,0,0,1,598.9,281.3Zm5.2-15.9c-4.7,0-8.5-4.1-8.5-9.2s3.8-9.2,8.5-9.2,8.5,4.1,8.5,9.2S608.7,265.4,604,265.4Zm17.2-13.1a3.7,3.7,0,1,1,3.4-3.7A3.5,3.5,0,0,1,621.2,252.4Zm64.4,6.1a6.5,6.5,0,1,1,6-6.5A6.2,6.2,0,0,1,685.6,258.5Zm0-36.6a6.5,6.5,0,1,1-6,6.5A6.2,6.2,0,0,1,685.6,221.8ZM621.2,228a3.7,3.7,0,1,1-3.4,3.7A3.5,3.5,0,0,1,621.2,228Zm-8.7-3.8c0,5.1-3.8,9.2-8.5,9.2s-8.5-4.1-8.5-9.2,3.8-9.2,8.5-9.2S612.5,219,612.5,224.1ZM598.9,199a4.6,4.6,0,1,1-4.2,4.5A4.4,4.4,0,0,1,598.9,199Zm-69.3,3.7a4.6,4.6,0,1,1-4.2,4.5A4.4,4.4,0,0,1,529.6,202.8Zm-37.8,20.6a4.6,4.6,0,1,1-4.2,4.5A4.4,4.4,0,0,1,491.8,223.3Zm-60.5,4.9a3.4,3.4,0,1,1-3.1,3.4A3.3,3.3,0,0,1,431.3,228.2Zm-34.5-12a70.6,70.6,0,0,0,6.8-3.4l6.7,6.5,2.2-.9-1.2,3.2-0.2,6.6-8.3,9.6h-4.5c-4.1-5.1-8.5-11.3-8.5-11.3l0.6-6.1-4.1-.4S393,217.9,396.8,216.2Zm-34.2,13.4a3.4,3.4,0,1,1-3.1,3.4A3.3,3.3,0,0,1,362.6,229.7Zm-88.6.1a3.7,3.7,0,1,1-3.4,3.7A3.6,3.6,0,0,1,274,229.7Zm-86.3-2.1a3.4,3.4,0,1,1-3.1,3.4A3.3,3.3,0,0,1,187.6,227.6Zm-88.5-3.7a3.4,3.4,0,1,1-3.1,3.4A3.3,3.3,0,0,1,99.1,223.9Zm-51-3.6a4.6,4.6,0,1,1-4.2,4.5A4.4,4.4,0,0,1,48.1,220.2ZM18.1,205a6.5,6.5,0,0,1,0,13A6.5,6.5,0,0,1,18.1,205Z"/><polygon points="730.1 211.4 737.7 211.4 749.7 175.7 749.7 171.7 731.8 194.6 730.1 211.4"/><polygon points="494.4 149.1 519.1 196.4 539 180.9 543.1 134 529.3 124.8 531 157.8 534.1 160.4 538 149.1 536.3 177.1 532.8 179.6 514.3 140.7 516.6 135 517.6 141.1 525.3 152.7 524.2 122.2 517.1 116 515.9 118.3 516 117.9 494.4 149.1"/><polygon points="487.6 99.8 493.8 95.3 467.4 94.2 469.1 97.1 487 131.9 513.7 95.3 504.7 96.1 482.9 114.2 475.6 100.1 475.7 99.8 487.6 99.8"/><ellipse cx="391.5" cy="196.6" rx="8.5" ry="9.2"/><ellipse cx="118.7" cy="140.9" rx="8.4" ry="9.2"/><ellipse cx="179.6" cy="181.9" rx="7.4" ry="8"/><ellipse cx="375.4" cy="205.3" rx="6" ry="6.5"/><ellipse cx="261.1" cy="204" rx="6" ry="6.5"/><ellipse cx="290.8" cy="82.6" rx="4.7" ry="5.1"/><ellipse cx="453.5" cy="159.5" rx="6" ry="6.5"/><ellipse cx="361.8" cy="210" rx="4.2" ry="4.5"/><ellipse cx="110.2" cy="123.6" rx="3.4" ry="3.7"/><ellipse cx="701.8" cy="146.5" rx="4.2" ry="4.5"/><ellipse cx="728.6" cy="124.9" rx="3.1" ry="3.4"/><ellipse cx="646.1" cy="124.8" rx="5.8" ry="6.3"/><ellipse cx="212" cy="200.2" rx="3.8" ry="4.1"/><ellipse cx="18.1" cy="211.5" rx="3.7" ry="4.1"/><ellipse cx="212.3" cy="168.4" rx="3.1" ry="3.4"/><ellipse cx="256.2" cy="190.8" rx="3.1" ry="3.4"/><ellipse cx="350.4" cy="213.2" rx="2.2" ry="2.4"/><ellipse cx="233" cy="197.6" rx="3.6" ry="4"/><ellipse cx="341.5" cy="214.3" rx="1.1" ry="1.2"/><ellipse cx="146.4" cy="188.7" rx="1.1" ry="1.2"/><ellipse cx="335.2" cy="214.7" rx="0.7" ry="0.8"/><path d="M697.8,82.1c-41.5-2.3-58,11.8-66.6,27.7l-1,1.6c12.6-8.5,30.5-13.3,46.2-11.6,21.7,2.4,30.9,16.3,20.6,31-2.2,3.2-3.8,3.6-9.7,7.7,0.2-.9-0.1-0.4.2-1.6,2.1-11.4-.5-18.8-22.9-16-9.4,1.2-14.2,15.6-11.2,19.5s13.2,6.2,22.6,5.2a29.1,29.1,0,0,0,7.2-1.6c16.8-4.1,32.2-13,40-24.2C735.3,102.5,723.3,83.5,697.8,82.1Zm-6.5,12.8a3.4,3.4,0,1,1,3.1-3.4A3.3,3.3,0,0,1,691.4,94.9Zm12.5,2.8a5.6,5.6,0,1,1,5.6,6A5.8,5.8,0,0,1,703.9,97.7Zm9.6,21.2a3.4,3.4,0,1,1,3.1-3.4A3.3,3.3,0,0,1,713.4,118.9Z"/><ellipse cx="134.5" cy="138.5" rx="3.1" ry="3.4"/><ellipse cx="151.7" cy="182.6" rx="3.9" ry="4.3"/><ellipse cx="141.8" cy="183.8" rx="2.4" ry="2.6"/><ellipse cx="731.9" cy="115.8" rx="2.2" ry="2.4"/><ellipse cx="644.1" cy="112.6" rx="2.2" ry="2.4"/><ellipse cx="732.2" cy="107.6" rx="1.4" ry="1.5"/><ellipse cx="654.5" cy="119.2" rx="1.4" ry="1.5"/><ellipse cx="654.3" cy="110.1" rx="3.3" ry="3.6"/><ellipse cx="335.8" cy="78.3" rx="8.7" ry="9.5"/><polygon points="424.4 93 418.6 91 413.6 94.1 407.5 97.4 408.3 114.1 398.9 101.7 390 106 385.6 125.9 396.8 121.8 399.3 106.2 411.2 121.1 415.3 118.5 415.4 109.7 424 116.6 429.8 119.1 418.8 101.1 424.4 93"/><path d="M153.5,90.2l-1.6-1.3A6.1,6.1,0,0,0,153.5,90.2Z"/><path d="M653.8,143l-6.5-7.6,0.3,3.6-2,2.8L642,135a55.6,55.6,0,0,1-4.6-3.4s0.3,6.6.2,6.7l2.2,1-7.3.3,2.3,1.4-8.9,12.3H628l-8.3,12.6-1.1,7.2,14.7-15.5,0.7-.6,16.5,11.1-1-5.9-9.4-9.9,4-5.5-0.6,2,2.3,0.3,5.3-4.2-0.5-.2a0.9,0.9,0,0,1-.1-1.2,0.7,0.7,0,0,1,1.1-.1,0.9,0.9,0,0,1,.2,1A10.7,10.7,0,0,1,653.8,143Z"/><ellipse cx="635.1" cy="172.7" rx="8.5" ry="9.3"/><polygon points="626.4 144.1 630.5 143.4 629.9 144.5 631.2 144.6 633.7 141.3 631.6 140 628.6 139.4 626.4 144.1"/><polygon points="634 136.5 636.8 135.2 636.7 131.7 632.6 129 630.5 134.3 633.9 134.7 633.1 136 634 136.5"/><path d="M2.8,190.5L0,194.2v41c1.8-11.7,4-41.9,4-41.9Z"/><path d="M7.5,147.1c22.3,18.3,82.4,6.5,82.4,6.5s-50.5,2.6-63.1-7.6c0,0-6.5-4.8-7.6-7.7l-0.3-.3,0.3,0.2,3.9,2.3,11.2-1-10.6-9.7L15,128.5l-7.6-9.9,7.9,7.6,0.7,0.4,9.1,0.6c-15.1-15.8-11.3-26.3-11.3-26.3H8.8c1.3-2.4,7.3-9.7,12.4-14l-6,1.6L4.7,93.3a50.9,50.9,0,0,1,4.8-4.5c6.9-6.1,33.1-16.1,68.9-5.9s36,23.1,39.8,24l28.6-12.4s-14.4-15.9-52-23.9C34.1,57.5,3.5,83.1,3.5,83.1L3.8,75C17,69,52.6,55,97.5,65.1c46.9,10.6,60,28.4,60,28.4l58.1-3.7-14.8-10s-47.2-22.6-75.5-27.3C85.3,45.9,62.3,38.4,3.6,65.6L3.5,59.6C47.6,40.5,67.6,36.2,121,47s75.4,21.8,75.4,21.8l72.9-3.1-1.5-1.9-0.3-.6,14.2-37.4-18.9-4.4-47.6,22,11.2,8.2-1.4-.5-3.1-.7-11.9-3.2-10.3-2.1c-21.5-4.5-54.8-11-70.2-13.7C71.1,21.5,61.8,19.2,3.2,48.2L0,23.1V139.7A64,64,0,0,0,7.5,147.1ZM262.6,26.3l9.6,3.1L259.5,58.6l-5.1-14.1a4.4,4.4,0,0,0,3.7-4.5,4.2,4.2,0,1,0-8.4,0,4.9,4.9,0,0,0,.1,1l-21.3,1.7Z"/><path d="M1.6,168.6l2.3,0.2c13.2,0.3,38-6.7,38-6.7s-14.8.5-25.8-4.4S2.8,149,2.8,149L0,146.2v22l1,0.3H1.6Z"/><polygon points="79.5 113.8 90.6 122.2 89.6 138.3 109.4 112.9 79.5 113.8"/><path d="M207.4,194.5l5.1-5.8s1.5-2,1.5-3.3a3.4,3.4,0,1,0-6.8,0,3.9,3.9,0,0,0,.5,1.9l-0.4.2s-3.2,2.2-3-3.4,2.5-5.5,2.5-5.5l10.9-5.5L215,188.7l6.9-.7,3.9-14.6L223,171l-3.9-3.7-0.5,3.2-17.8,8.5,5.7-5.8,3.4-33.9-4.3,4.8,0.5-6-59.7,1.2-21.8,15.9,65.3-1.2,1.8-4.4,0.4-.6,0.2,22.6a5.7,5.7,0,0,0-1.8-3.2c-2.5-2.3-24.8,1.2-30.6,2.3-3.4.7-15.8,2.9-20,5.2a15.1,15.1,0,0,0-5,5.5s17-8.5,25.8-2.1c0,0-3.4-.9-2.7,0l-3.5,12.9,4.2,2,7.3-10.9,1.2,6.4-3.8,6.2,7.9,2.3,7.3-1.7a32.4,32.4,0,0,1-8.6-9.9c-4.7-10.7,10.6-25.7,20.2-9,3.6,14.2-11.7,16.4-11.7,16.4l6,3.7-3.7,2.4s14.9,5,26.9,5.1c0,0-2.6-2.7-2.3-5.1A19.6,19.6,0,0,1,207.4,194.5Z"/><ellipse cx="101.9" cy="150" rx="6" ry="6.5"/><path d="M105.7,108.3c-11.2-16.1-39.3-27-62.9-24.5S9.2,101.5,20.4,117.6C27.6,128,41.9,136.2,57.5,140a27,27,0,0,0,6.6,1.5c8.7,0.9,18.1-1.3,21-4.8s-1.6-16.9-10.3-18c-20.8-2.7-23.2,4.2-21.3,14.8,0.2,1.1,0,.6.2,1.4-5.9-2.5-7-4.1-9.1-7.1-9.5-13.7-.9-26.6,19.1-28.8,14.6-1.6,31.2,2.9,42.9,10.8ZM32.2,120.1a3.4,3.4,0,1,1,3.1-3.4A3.3,3.3,0,0,1,32.2,120.1Zm2.6-14.7a6.5,6.5,0,0,1,0-13A6.5,6.5,0,0,1,34.8,105.4ZM51.9,95.1a3.7,3.7,0,1,1,3.4-3.7A3.5,3.5,0,0,1,51.9,95.1Z"/><ellipse cx="431.4" cy="201.7" rx="5.5" ry="6"/><ellipse cx="442" cy="208.1" rx="3.8" ry="4.1"/><ellipse cx="437.3" cy="189.8" rx="2.5" ry="2.7"/><path d="M253.5,159.7c-15-.7-29.7-1.1-43.7-1.4v4.6c13.9-.9,27.9-1.5,43.4-1.9l-0.4-.6Z"/><path d="M266,160.7H266a4.1,4.1,0,1,0,4.1-4.4,4.1,4.1,0,0,0-4.1,3.8l3.9,0.3h-4l-2.3-.2c0,0.2,0,.3,0,0.5H266Z"/><path d="M460,212.1c9.4,0,17-8.3,17-18.5s-7.6-18.5-17-18.5-17,8.3-17,18.5S450.6,212.1,460,212.1Zm12-19.1a13.2,13.2,0,0,1-4.2,9.8l-2.3-7.8,6.3-4.9A13.9,13.9,0,0,1,472.1,193Zm-0.8-4.7h-7.8l-2.4-8.1A11.9,11.9,0,0,1,471.2,188.4Zm-11,10.9,6,4.8a10.9,10.9,0,0,1-12-.1Zm-0.9-19-2.4,8h-7.6A11.9,11.9,0,0,1,459.4,180.3Zm-10.5,10,6.1,4.8-2.3,7.6a13.2,13.2,0,0,1-4.1-9.7A13.9,13.9,0,0,1,448.9,190.3Z"/><polygon points="74.4 106.2 72.7 100.7 71.1 106.2 65.8 106.2 70.1 109.6 68.5 115 72.7 111.7 77 115 75.4 109.6 79.6 106.2 74.4 106.2"/><polygon points="149.4 113.4 141.9 114.3 148.4 118.3 146.9 126.3 152.4 120.8 158.9 124.8 155.8 117.4 161.3 112 153.9 112.9 150.9 105.5 149.4 113.4"/><polygon points="710.4 200.8 711.3 206.7 713.7 201.4 719.1 202.3 715.2 198.2 717.6 192.9 712.8 195.6 709 191.4 709.9 197.3 705.1 199.9 710.4 200.8"/><polygon points="82.2 201.8 88.6 192 99.1 195.6 92.5 185.9 98.9 176.1 88.5 180 81.9 170.3 82 182.3 71.5 186.2 82 189.8 82.2 201.8"/><polygon points="671.3 107.6 669.7 102.2 668 107.6 662.8 107.6 667 111 665.4 116.5 669.7 113.1 673.9 116.5 672.3 111 676.6 107.6 671.3 107.6"/><path d="M390.2,64.9L312.9,26.1l-24,1.8,18.2,13-5,7.1h-2.6l-7.4,25h16l20.3-13.4-3.9-6.2L358.7,78l5.2,6.8-7.4-3.7L324.4,97.9s4,4,5.8,4.4c7.4,1.2,12.5-.6,25.7-4.5,8-2.4,20.6-7,20.6-7l38.9-5.5-2.3-9.1,6.9-3.7,6.9,17.7h34.9L449.2,78l-4,6.6H434.9l-5.6-14.5,11.2,0.4-3.3-12.1L418.7,42.3l0.2,0.9-0.6-1.6-20,18.1,8,19.6-8.6,1.2Zm14-.6,5.7-3.4L408.7,54l4.7,4.8,5.7-3.4-2.8,6.4,4.7,4.8-6.4-.9-2.8,6.4-1.2-6.9Z"/><path d="M118,124.8l5.5-1.6c-0.2.7,0.7-.3,0.8,0.3,0.4,4.4,7,7.8,17.8,9.9l2.6-13L131.5,112l15.1-1.7L149.1,98a137.7,137.7,0,0,0-30.7,12.8Z"/><path d="M156,109.3l15.1-1.7-11.3,11,6.1,15.1-13.1-8.3-8.5,8.3c14.7,2.5,36.3,2.9,60.1.4l4-.5c-23-.2-39.3-4.1-39.9-10.5-0.8-8.9,29.4-23.9,74-23.7l26.8-7.7c-7.4-.1-45.7,1.2-56.2,1.6-7.1.3-13.7,0.7-19.9,1.3l-31.6,2-10.3,1Z"/><polygon points="728 193.9 723.3 189.7 718.9 198.1 726.3 206.9 728 193.9"/><polygon points="699.6 198.8 706.5 195.3 705.1 181.7 713.6 191.8 721.4 187.9 697.5 166.1 699.6 198.8"/><polygon points="59.6 107.7 57.1 104 57.1 108.5 53.1 109.9 57.1 111.3 57.1 115.9 59.5 112.2 63.5 113.7 61.1 110 63.5 106.3 59.6 107.7"/><polygon points="48.6 119.6 50.4 122.6 50.6 119.1 53.7 118.2 50.7 116.9 50.9 113.4 48.9 116.1 45.8 114.8 47.6 117.8 45.5 120.5 48.6 119.6"/><polygon points="683.4 115.1 685.6 118.9 685.9 114.4 689.9 113.3 686 111.6 686.3 107 683.6 110.5 679.8 108.9 682 112.7 679.3 116.2 683.4 115.1"/><polygon points="693.8 119.8 691.9 116.9 691.9 120.4 688.8 121.5 691.9 122.6 691.9 126.2 693.8 123.3 696.9 124.4 695 121.5 696.9 118.7 693.8 119.8"/><path d="M76.9,178.7V161.9c-40,3.7-65.4,10-66.9,18s19.4,19.9,66.5,28.8V194l-21.6-7.9Z"/><path d="M342.6,201.9l-37.9-.8-21.4-8.2-6.9,4,0.4,3.2L258,172l-10.3.3v-8.6l-19.8,1.2-8.2.2,8.4,7.1v0.8L223,192.7l-1.1-2.8-6.9.9,6.3,17.2,30.8,3.9L248.8,179h8.6l17.5,27.2-6.6,3.1-6,4.2,22.4,1.5,4.3-1.6,7,2.9,3.6-4.4c2.1,0.1,0,.2,3.1.3l1,0.7-2,.6,0.7,2.6c3.2,1.2,10.8,1.2,10.8,1.2l-1.4-2.1,0.5-2.4c4.2,0,8.6,0,12.8-.2,1.6-.1,3.1-3.5,3.1-3.5l-2.7-.8s18.2,0.3,20.2.6,5.6-6.7,5.6-6.7h-4.5v-3.7ZM233.9,168.1a3.4,3.4,0,1,1-3.1,3.4A3.3,3.3,0,0,1,233.9,168.1Zm-0.8,36.5a6.8,6.8,0,1,1,6.3-6.8A6.6,6.6,0,0,1,233.1,204.6Zm8.2-18.1a4.6,4.6,0,1,1,4.2-4.5A4.4,4.4,0,0,1,241.2,186.5Zm39.4,14.8-1.1-3.9,2.2-.9,7.4,4.8h-8.5Zm13.3,12.2-3.5-1.6,2.4-1.1h3.4Z"/><ellipse cx="604.3" cy="224.4" rx="5.6" ry="6.1"/><ellipse cx="622.1" cy="182.9" rx="3.2" ry="3.5"/><ellipse cx="305.8" cy="179.8" rx="2.9" ry="3.1"/><ellipse cx="301.3" cy="77.8" rx="2.2" ry="2.4"/><ellipse cx="88.3" cy="144.9" rx="3.1" ry="3.4"/><ellipse cx="103.6" cy="135.1" rx="2.1" ry="2.2"/><ellipse cx="685.6" cy="228" rx="3.3" ry="3.6"/><ellipse cx="402.5" cy="121.1" rx="2.1" ry="2.2"/><ellipse cx="429" cy="152" rx="2.1" ry="2.2"/><path d="M376.5,94.1c-22.7,8.7-45.2,17.2-54,7.4-3.1-3.5-.8-30.1,6.9-38.3-15,11.2-26.5,19.4-37.4,29.8l-0.2.5-12.7,17.1v2.5c-3,31,67.1,7.2,137.6-24.2ZM307.7,122l-6.9-8.4-9.5,4.5,5.2-9.8-6.9-8.4,10.1,2.4,5.2-9.8,1,11.2,10.1,2.4-9.5,4.5Z"/><path d="M262.6,118.8l1.1,0.8Z"/><path d="M374.9,126.2l7-16-61,19.8-21.5,1.5-6,3.5,14.4,9.2,2.1-2.9h0L306.6,153l-29.7-23.8-9,8.2V137a10.9,10.9,0,0,0,.5-3.3,10.1,10.1,0,0,0-3.1-7.4l2.5-4c5.6,3.2,11,4.9,11.9,2.9s-1.9-6.1-7.5-9.9L290,92l-6.8-2L272,93.4l-24.3,7.7,19.6,4.2,4.9-1.7h0.1c-0.2.8-3.3,8.9-3.5,9.2-5.8-3.5-11.5-4.7-12.5-2.6s1.6,5.2,6.3,8.7l2.4,1.6v0.6l-2,3.7a6.8,6.8,0,0,0-2.6-.5c-2.9,0-5,1.8-6.4,4.5v-8.2l-8,4.8-0.3,6.3c-0.2.1-4.9,1.4-5.2,1.7a8.7,8.7,0,0,0-7.9-5.5c-4.6,0-8.4,3.9-8.6,8.9h0c-1.7.2-3.5,0.9-3.3,0.3l-0.5-5.8c-1.2,0-8.2,1.1-8.2,1.1l-1,22.2c10.9,0,41.8,1,41.8,1l0.8-.3L271.7,140l35.2,28.5,6.4-23.5,34.3-9.7-5.5,5.8,12.7,2.3Zm-103.2-9.9c3.3,2.2,6.1,4,4.7,5.7s-3.8-.3-7-2.2ZM224,137h0v0Zm8.4,5c-2.3,0-4.2-2.2-4.2-5s1.9-5,4.2-5,4.2,2.2,4.2,5S234.8,142,232.5,142Zm14.2,6.1a7.7,7.7,0,0,1-4.5-.1,3,3,0,0,1-.4-1.5,2.7,2.7,0,1,1,5.3,0A3,3,0,0,1,246.7,148.1Zm3.1-1.8c0-.2,0-0.3,0-0.5,0-3.4-2.3-6.2-5.2-6.2s-5.2,2.8-5.2,6.2c0,0.2,0,.3,0,0.5a6.5,6.5,0,0,1-2-4.7,7.3,7.3,0,0,1,14.5,0A6.5,6.5,0,0,1,249.8,146.3Zm4.3,4.2V139.2c2.1,3.1,4.5,3.8,6.4,3.8h0.2l2.9-.5Zm6.3-11.5c-2.3,0-4.2-2.2-4.2-5s1.9-5,4.2-5,4.2,2.2,4.2,5S262.8,139.1,260.5,139.1Zm0.3-27.6c0.4-.8,4.2.5,7.5,2.4l-1.5,3.4C263.6,115.1,260.4,112.3,260.8,111.5Z"/><ellipse cx="462" cy="167.7" rx="3.2" ry="3.5"/><path d="M77.2,151.4l6.9-9.7-8.4,2.5-12.3,7.2S66.6,152.6,77.2,151.4Z"/><path d="M25.4,142.3c0.2,0.1,2.8,3.2,6.5,4.2S44.7,150,44.7,150c6.5,1.4,14.4,1.6,14.2,1.3L60,151l12.3-6.1,0.2-.6-15-.9s3.8,5.2-5.3,5.2c-10.6-.3-13.1-5.3-13.1-5.3l12.4-2.2L34,133l-4.7-.5,9.1,8.6H35.9Z"/><path d="M82.5,147.1l-3.4,4.9,11.7-.5A29.9,29.9,0,0,1,82.5,147.1Z"/><path d="M0,5.1H0.3L7.6,42.5l18.8-9.6L22.3,5.1h4.4L32,30.7l29-8.5L57,5.1h4.9L64,22H83L86.2,5.1h5.4l-5,15.5L116,25s-4-3.5-3.4-7.7,14.9-8.7,22.9-10.8c7.5-.5,7.9-1.2,22.8-0.7,29.5,0.8,27.3,11.3,27.3,11.3l3.6-2.5,2.1-1.2,16.9-7.4,18.6-.7h7.1l-15,3,37.4,9.3L271.1,11c2.2,1.7,1,4.4,4,4.9,9.5,1.6,25.1-1.5,25.1-1.5l0.2-.7c-2.9-.7-4.7-5.6-5.2-7.4a13.2,13.2,0,0,1-.3-1.3h3.5c1,4.6,6.3,8.1,12.7,8.1S323,9.7,324,5.1h15.7c-7.4,5.3-24.4,10.4-44.5,12.8a169.8,169.8,0,0,1-27.3,1.2c8.4,3.8,26,5,45.9,2.6,23.8-2.8,43.2-9.8,47.5-16.6h9.3l0.7,5-13.7.7,3.7,5.7,11.2,6.1,5.2,19.9L351.7,30.4l12.2-3.1-21.2-8.5-24.6,6.7,71.6,34.8-6.3-33.5,13.2,29.2,20-18.1-3.4-12.8,9.6,9.9,7.6,1.3L415.8,5.1h2.5l13.1,5-2.9,3.1,10.7,30L450.9,28l-1.4-4.3,20.9-5.5-13-13.1h6.1l11.9,11.7L525.1,5.5l9.5,2.8h-0.6l15.5,5.5,13-5.9c19.4-5.1,53.4,2,56.3,1.7l13.6-4.4h13.2l-22.3,8.4a4.5,4.5,0,0,1,1.1,5.8c-1.9,3.7-7.7,7.4-7.7,7.4s42.1-8.5,60.8-4.5c6.9,1.1,21.8,3.9,35.1,9.1l-2.8-14.8h0.1L707.7,5.1h5.7l2.5,24.7,0.6,4L715,35l15.3,7.9V5.1h4.6l-1,43.2c-58.6-29-68-26.7-126.2-16.6-15.4,2.7-48.6,9.2-70.2,13.7l-10.3,2.1-11.9,3.2-3.1.7-1.4.5,11.2-8.2-47-22-19.5,4.4,15.7,39.5-1.1.4,73,3.1S562.8,57.8,616,47s73.5-6.5,117.5,12.6l-0.2,6.5c-54.3-29.3-81.6-19.5-121.6-13.6-36,5.3-75.5,27.3-75.5,27.3l-14.8,10,58.1,3.7s6.9-16.5,60-28.4c44.8-10.1,77.6-1.2,93.7,10.5l-0.3,8.8s-23.8-28.2-91.3-14.4c-49.1,10-56.7,26.4-56.7,26.4L624.5,110s6.7-17.6,31.8-27.1c35-13.2,67.2.1,71.2,5.9s4.6,7.1,5.7,9.7c1.9,4.4,4,9.3,4.2,16.1s-4.4,15-7.2,22.3a12.9,12.9,0,0,0-3.7-5c-4.5-3.9-11.5.7-16,8.9s-4.6,14.7-4,19.3l-15.7-13.5s-9.6,2.8-13.6,3.7c-5.9,1.3-16.8-1.2-16.8-1.2l2.3,6.2,14.1,8.1h0l-1.3,31.1-3.6,1.9V167.8l-16.8-10,5.3,42.8-7.3,2.1-2.6-32-11.7,17,2.8,17a40.8,40.8,0,0,1-5,.1l-3.6-16.2-7.2,1.2-3.4,6.8,2.2,4.8c-26.1-11.7,4.7-69.6,4.7-69.6,1-2.1-16.9,10-16.9,10-3.7,7.7-8.4,31.9-8.4,31.9s-1,3.7,1.3,9.9a62.6,62.6,0,0,1,2.7-8.7c1.2-2.5,5.2-5.2,5.2-5.2s-0.9,6.2-1.5,11.7c-3.1,31.9,28.5,55.4,47.6,46.5,22.8-10.6,35.8-30.9,34.1-52.5l0.4-16.6L728,189l21.7-24.9V0H0V5.1ZM486,41.5a4.9,4.9,0,0,0,.2-1.5,4.2,4.2,0,1,0-4.2,4.5h0.1l-5,14.7-11.7-30,9.8-2.6,32,16.4Zm230,126.9-0.6-.5c-2.1-5.2-4.1-13.7,1.3-20.7,0,0,3-3,5.2-1.8a5.7,5.7,0,0,1,2.8,4.5C720,160.7,715.9,168.4,715.9,168.4ZM688.7,5.1l2.9,14-3.5-.7L683.3,5.1h5.4Zm-31,0,6.7,10.6h-7.5L646.1,5.1h11.6ZM391.7,15a8.1,8.1,0,0,1,.3-1.5,7.8,7.8,0,0,1,.5-1.3,7.4,7.4,0,0,1,2.2-2.6,6.4,6.4,0,0,1,7.7,0,7.4,7.4,0,0,1,2.2,2.6,7.8,7.8,0,0,1,.5,1.3,8.1,8.1,0,0,1,.3,1.5q0,0.4,0,.8t0,0.8a8,8,0,0,1-.5,2.2l-0.3.7a6.6,6.6,0,0,1-12.1,0l-0.3-.7a8,8,0,0,1-.5-2.2q0-.4,0-0.8T391.7,15Z"/><path d="M438.2,123.9l-18.6,4.5v-7l-9.4,5-2.3-2.8-3.9,5h0a2.6,2.6,0,0,0-1.7-.6,2.8,2.8,0,0,0-2.7,2.9,3.1,3.1,0,0,0,.4,1.4,11.1,11.1,0,0,0-2.5,6.4c0,1.1,0,2.2.1,3.2a4.3,4.3,0,0,0-2.2,3.8,4.1,4.1,0,0,0,3.9,4.2l1.4-.3c1.7,1.7,4.3,2.7,8,3a2.9,2.9,0,0,0,2.8,2.4,2.9,2.9,0,0,0,2.5-1.6l7.6,1.8-1.2-3.8h-1c1.9-.9,1.5-2.3,2.5-3.9l9.7-5-6.7-3.9,10.1-7.9Zm-23.6,16.9v6.7l-4-5.1-6.4,2.6,3.9-5.8-4-5.1,6.4,1.5,3.9-5.8v6.7l6.4,1.5Z"/><path d="M344.6,308.6L327.1,302l-31-15.6-9.7,5.1-2-.6-8.2-3.4-23,31.9,10.5,0.2v-0.3a6.6,6.6,0,1,1,6.5,7.1,6.8,6.8,0,0,1-6.5-6.3l-4.4.3-5.7.3,17.7,14.3L303.5,308a33.1,33.1,0,0,0-2.9-5.4l-13.7,12.2,11.7-13.4-2.1-1.9-2-1.4-7.9,7.2,6.4-8.5-2.7-1.7-1.8-.7-3.8,2.4,1.4-2.7,9.9-5,2.1,2-3.5,3,3.7,3.5,1.6,1.2,2.8-5.4,17.8,8.7-8.7-.6-1.7,5.1,6.3,24.5,20,5.9,1.1-3.5,1.5-.2,1.5,1.9,12.6-2.5-0.8-1.7-3.4-10.4H338.7l-1.1-6.6,8.6,1.1Z"/><path d="M400.9,245.3s-8,8.7-7.9,10.7-0.5,3.1,2,4.5,5.8-2.5,5.8-2.5,2.6,3.9,5.6,2.5,2-2.7,1.9-4.5S400.9,245.3,400.9,245.3Z"/><path d="M176.2,358.2c-0.7,6.5,16.3,14,37.9,16.8s39.7-.2,40.4-6.6-16.3-14-37.9-16.8S176.9,351.7,176.2,358.2Zm13.4,1.7c0.5-4.3,12.3-6.2,26.6-4.4s25.4,6.8,24.9,11.1-12.3,6.2-26.6,4.4S189.1,364.2,189.6,360Z"/><path d="M615.3,457.3c-8-3.4-22-7.2-22-7.2l-63.4-11.4-49.6,22.2,17.7,4.2,27.2,6.2,20-7.7-3-5.4-10,1.4,16-7c23.6-2,48.4,1.7,56.5,4.6a127.3,127.3,0,0,0-12.9-.5c-17.8.2-33.6,3.5-35.4,7.4s11.3,7,29.1,6.8c27-.5,35.5-8.6,35-9.2S620.3,459.4,615.3,457.3Z"/><path d="M191.7,463.6l17,8.2,30.1-8,13.2-3.6-47.8-21.5-60.6,11.4s-13.9,3.8-22,7.2c-4.9,2.1-5.9,4.5-5.3,4.4s8.1,8.7,35,9.2c17.8,0.2,30.8-2.9,29.1-6.8s-17.6-7.2-35.4-7.4a127.3,127.3,0,0,0-12.9.5c8-2.9,32.3-6.6,55.9-4.6l16.6,7-10-1.4Z"/><polygon points="471.8 401.8 474.4 405.3 457.8 407.4 444.6 408.5 440.4 422.1 444.6 421.2 440.4 433.4 452.3 450.5 466 417.7 457.6 412.1 538 407.7 511.1 390.2 467.7 391 453.2 403.1 471.8 401.8"/><polygon points="284.1 451.7 303.2 438.7 300 435.2 295.6 435.2 295.4 435.2 296.6 433.4 288.1 408.4 262.6 405.3 265.2 401.8 284.4 403.1 272.8 391.6 225.9 390.2 201.9 407.7 279.4 412.1 271 417.7 284.1 451.7"/><polygon points="588.3 324.4 608.9 336.1 605.3 329.2 588.3 309.4 586 298.8 573.4 308.9 582.6 381.1 623.2 367 637.5 362.5 631.2 353.6 590.9 330 593.8 337.4 599 344.5 585.4 353 579.7 312.4 583.1 310.2 588.3 324.4"/><polygon points="730.1 268.9 731.8 285.8 749.7 308.7 749.7 304.6 737.7 268.9 730.1 268.9"/><polygon points="531 322.5 529.3 355.5 543.1 346.4 539 299.5 519.1 283.9 494.4 331.2 516 362.4 515.9 362 517.1 364.3 524.2 358.2 525.3 327.6 517.6 339.3 516.6 345.4 514.3 339.7 532.8 300.7 536.3 303.2 538 331.2 534.1 319.9 531 322.5"/><polygon points="504.7 384.2 513.7 385 487 348.5 469.1 383.2 467.4 386.1 493.8 385 487.6 380.5 475.7 380.5 475.6 380.2 482.9 366.1 504.7 384.2"/><ellipse cx="391.5" cy="283.7" rx="8.5" ry="9.2"/><ellipse cx="118.7" cy="339.4" rx="8.4" ry="9.2"/><ellipse cx="179.6" cy="298.4" rx="7.4" ry="8"/><ellipse cx="375.4" cy="275" rx="6" ry="6.5"/><ellipse cx="261.1" cy="276.3" rx="6" ry="6.5"/><ellipse cx="290.8" cy="397.7" rx="4.7" ry="5.1"/><ellipse cx="453.5" cy="320.8" rx="6" ry="6.5"/><ellipse cx="361.8" cy="270.3" rx="4.2" ry="4.5"/><ellipse cx="110.2" cy="356.7" rx="3.4" ry="3.7"/><ellipse cx="701.8" cy="333.8" rx="4.2" ry="4.5"/><ellipse cx="728.6" cy="355.4" rx="3.1" ry="3.4"/><ellipse cx="646.1" cy="355.5" rx="5.8" ry="6.3"/><ellipse cx="212" cy="280.2" rx="3.8" ry="4.1"/><ellipse cx="18.1" cy="268.9" rx="3.7" ry="4.1"/><ellipse cx="212.3" cy="311.9" rx="3.1" ry="3.4"/><ellipse cx="256.2" cy="289.6" rx="3.1" ry="3.4"/><ellipse cx="350.4" cy="267.2" rx="2.2" ry="2.4"/><ellipse cx="233" cy="282.7" rx="3.6" ry="4"/><ellipse cx="341.5" cy="266" rx="1.1" ry="1.2"/><ellipse cx="146.4" cy="291.6" rx="1.1" ry="1.2"/><ellipse cx="335.2" cy="265.6" rx="0.7" ry="0.8"/><path d="M676.1,334.7c-9.4-1-19.5,1.4-22.6,5.2s1.8,18.2,11.2,19.5c22.4,2.9,25-4.6,22.9-16-0.2-1.2,0-.7-0.2-1.6,5.9,4.1,7.5,4.5,9.7,7.7,10.3,14.8,1,28.7-20.6,31-15.7,1.7-33.7-3.1-46.2-11.6l1,1.6c8.6,15.9,25.1,30,66.6,27.7,25.5-1.4,37.5-20.4,25.5-37.8-7.8-11.2-23.2-20.1-40-24.2A29.1,29.1,0,0,0,676.1,334.7Zm15.2,57.6a3.4,3.4,0,1,1,3.1-3.4A3.3,3.3,0,0,1,691.4,392.3Zm22.1-30.8a3.4,3.4,0,1,1-3.1,3.4A3.3,3.3,0,0,1,713.4,361.5Zm-4,15.1a6.1,6.1,0,1,1-5.6,6A5.8,5.8,0,0,1,709.4,376.6Z"/><ellipse cx="134.5" cy="341.8" rx="3.1" ry="3.4"/><ellipse cx="151.7" cy="297.7" rx="3.9" ry="4.3"/><ellipse cx="141.8" cy="296.5" rx="2.4" ry="2.6"/><ellipse cx="731.9" cy="364.6" rx="2.2" ry="2.4"/><ellipse cx="644.1" cy="367.7" rx="2.2" ry="2.4"/><ellipse cx="732.2" cy="372.7" rx="1.4" ry="1.5"/><ellipse cx="654.5" cy="361.2" rx="1.4" ry="1.5"/><ellipse cx="654.3" cy="370.2" rx="3.3" ry="3.6"/><ellipse cx="335.8" cy="402.1" rx="8.7" ry="9.5"/><polygon points="390 374.3 398.9 378.6 408.3 366.3 407.5 383 413.6 386.2 418.6 389.3 424.4 387.3 418.8 379.2 429.8 361.2 424 363.7 415.4 370.6 415.3 361.9 411.2 359.2 399.3 374.1 396.8 358.6 385.6 354.4 390 374.3"/><path d="M151.9,391.4l1.6-1.3A6.1,6.1,0,0,0,151.9,391.4Z"/><path d="M634.8,339.3l-2.3,1.4,7.3,0.3-2.2,1c0.1,0.1-.2,6.7-0.2,6.7a55.6,55.6,0,0,1,4.6-3.4l3.7-6.7,2,2.8-0.3,3.6,6.5-7.6a10.7,10.7,0,0,1-2.3-1.5,0.9,0.9,0,0,1-.2,1,0.7,0.7,0,0,1-1.1-.1,0.9,0.9,0,0,1,.1-1.2l0.5-.2-5.3-4.2-2.3.3,0.6,2-4-5.5,9.4-9.9,1-5.9-16.5,11.1-0.7-.6-14.7-15.5,1.1,7.2L628,327h-2.1Z"/><ellipse cx="635.1" cy="307.6" rx="8.5" ry="9.3"/><polygon points="628.6 340.9 631.6 340.3 633.7 339 631.2 335.8 629.9 335.8 630.5 336.9 626.4 336.3 628.6 340.9"/><polygon points="636.7 348.6 636.8 345.2 634 343.8 633.1 344.3 633.9 345.6 630.5 346 632.6 351.4 636.7 348.6"/><path d="M4,287S1.8,256.8,0,245v41l2.8,3.7Z"/><path d="M129.3,448.7c15.4-2.7,48.6-9.2,70.2-13.7l10.3-2.1,11.9-3.2,3.1-.7,1.4-.5-11.2,8.2,47.6,22,18.9-4.4L267.5,417l0.3-.6,1.5-1.9-72.9-3.1s-22.3,11.1-75.4,21.8S47.6,439.8,3.5,420.7l0.2-5.9c58.7,27.2,81.7,19.6,121.6,13,28.3-4.7,75.5-27.3,75.5-27.3l14.8-10-58.1-3.7s-13.1,17.8-60,28.4c-44.8,10.1-80.5-3.9-93.7-9.8l-0.3-8.2s30.5,25.6,91.3,12.6c37.6-8,52-23.9,52-23.9l-28.6-12.4c-3.9.9-4,13.7-39.8,24s-62,.2-68.9-5.9A50.9,50.9,0,0,1,4.7,387l10.5,4.9,6,1.6c-5.1-4.3-11.1-11.6-12.4-14h4.9S9.9,369,25,353.2l-9.1.6-0.7.4-7.9,7.6,7.6-9.9,8.8-1.3,10.6-9.7-11.2-1-3.9,2.3-0.3.2,0.3-.3c1.1-2.9,7.6-7.7,7.6-7.7,12.6-10.1,63.1-7.6,63.1-7.6s-60-11.8-82.4,6.5A64,64,0,0,0,0,340.6V457.2l3.2-25.1C61.8,461.1,71.1,458.8,129.3,448.7Zm120.5-9.4a4.9,4.9,0,0,0-.1,1,4.2,4.2,0,1,0,8.4,0,4.4,4.4,0,0,0-3.7-4.5l5.1-14.1,12.7,29.2-9.6,3.1-34.1-16.3Z"/><path d="M16.1,322.6c11-4.9,25.8-4.4,25.8-4.4s-24.8-7-38-6.7l-2.3.2H1l-1,.3v22l2.8-2.7S5.5,327.3,16.1,322.6Z"/><polygon points="90.6 358.1 79.5 366.6 109.4 367.4 89.6 342 90.6 358.1"/><path d="M191.7,330.7l-1.8-4.4L124.6,325l21.8,15.9,59.7,1.2-0.5-6,4.3,4.8L206.4,307l-5.7-5.8,17.8,8.5L219,313l3.9-3.7,2.8-2.4-3.9-14.6-6.9-.7,2.8,15.5-10.9-5.5s-2.3-1.2-2.5-5.5,3-3.4,3-3.4l0.4,0.2a3.9,3.9,0,0,0-.5,1.9,3.4,3.4,0,1,0,6.8,0c0-1.2-1.5-3.3-1.5-3.3l-5.1-5.8a19.6,19.6,0,0,1-2.1-5.7c-0.3-2.4,2.3-5.1,2.3-5.1-11.9,0-26.9,5.1-26.9,5.1l3.7,2.4-6,3.7s15.2,2.2,11.7,16.4c-9.6,16.7-24.8,1.7-20.2-9a32.4,32.4,0,0,1,8.6-9.9l-7.3-1.7-7.9,2.3,3.8,6.2-1.2,6.4L158.6,286l-4.2,2,3.5,12.9c-0.7,1,2.7,0,2.7,0-8.8,6.4-25.8-2.1-25.8-2.1a15.1,15.1,0,0,0,5,5.5c4.2,2.3,16.6,4.6,20,5.2,5.7,1.1,28.1,4.6,30.6,2.3a5.7,5.7,0,0,0,1.8-3.2L192,331.2Z"/><ellipse cx="101.9" cy="330.3" rx="6" ry="6.5"/><path d="M20.4,362.8C9.2,378.8,19.3,394,42.8,396.5s51.7-8.4,62.9-24.5l0.9-1.5c-11.7,7.8-28.3,12.3-42.9,10.8-20.1-2.2-28.7-15.1-19.1-28.8,2.1-3,3.1-4.5,9.1-7.1-0.2.8,0,.3-0.2,1.4-1.9,10.5.5,17.5,21.3,14.8,8.7-1.1,13.2-14.5,10.3-18s-12.2-5.7-21-4.8a27,27,0,0,0-6.6,1.5C41.9,344.1,27.6,352.4,20.4,362.8Zm31.6,22.5a3.7,3.7,0,1,1-3.4,3.7A3.5,3.5,0,0,1,51.9,385.2Zm-19.8-25a3.4,3.4,0,1,1-3.1,3.4A3.3,3.3,0,0,1,32.2,360.2Zm2.6,14.7a6.5,6.5,0,0,1,0,13A6.5,6.5,0,0,1,34.8,374.9Z"/><ellipse cx="431.4" cy="278.6" rx="5.5" ry="6"/><ellipse cx="442" cy="272.2" rx="3.8" ry="4.1"/><ellipse cx="437.3" cy="290.5" rx="2.5" ry="2.7"/><path d="M253.1,319.4c-15.5-.4-29.5-1-43.4-1.9V322c14-.3,28.7-0.8,43.7-1.4l-0.8-.7Z"/><path d="M266,319.9h4l-3.9.3a4.1,4.1,0,0,0,4.1,3.8,4.3,4.3,0,1,0-4.1-4.4h-2.4c0,0.2,0,.3,0,0.5Z"/><path d="M460,305.2c9.4,0,17-8.3,17-18.5s-7.6-18.5-17-18.5-17,8.3-17,18.5S450.6,305.2,460,305.2ZM449.4,292H457l2.4,8A11.9,11.9,0,0,1,449.4,292Zm11.7,8.1,2.4-8.1h7.8A11.9,11.9,0,0,1,461.1,300Zm11-12.7a13.9,13.9,0,0,1-.3,2.9l-6.3-4.9,2.3-7.8A13.2,13.2,0,0,1,472.1,287.3Zm-11.7-12.8a11,11,0,0,1,5.9,1.8l-6,4.8-5.9-4.7A11,11,0,0,1,460.3,274.5Zm-7.6,3.1,2.3,7.6-6.1,4.8a13.9,13.9,0,0,1-.3-2.7A13.2,13.2,0,0,1,452.7,277.6Z"/><polygon points="72.7 368.7 68.5 365.3 70.1 370.8 65.8 374.1 71.1 374.1 72.7 379.6 74.4 374.1 79.6 374.1 75.4 370.8 77 365.3 72.7 368.7"/><polygon points="150.9 374.8 153.9 367.4 161.3 368.3 155.8 362.9 158.9 355.5 152.4 359.5 146.9 354 148.4 362 141.9 366 149.4 366.9 150.9 374.8"/><polygon points="711.3 273.7 710.4 279.5 705.1 280.4 709.9 283.1 709 288.9 712.8 284.7 717.6 287.4 715.2 282.2 719.1 278 713.7 278.9 711.3 273.7"/><polygon points="88.5 300.4 98.9 304.2 92.5 294.4 99.1 284.7 88.6 288.3 82.2 278.5 82 290.5 71.5 294.1 82 298 81.9 310 88.5 300.4"/><polygon points="668 372.7 669.7 378.1 671.3 372.7 676.6 372.7 672.3 369.3 673.9 363.8 669.7 367.2 665.4 363.8 667 369.3 662.8 372.7 668 372.7"/><path d="M420,407.9l-6.9-3.7,2.3-9.1-38.9-5.5s-12.6-4.6-20.6-7c-13.2-3.9-18.3-5.7-25.7-4.5-1.8.4-5.8,4.4-5.8,4.4l32.1,16.8,7.4-3.7-5.2,6.8-34.2,24.5,3.9-6.2-20.3-13.4h-16l7.4,25H302l5,7.1-18.2,13,24,1.8,77.3-38.8,7.4-15.6,8.6,1.2-8,19.6,20,18.1,0.6-1.6-0.2.9,18.5-16.1,3.3-12.1-11.2.4,5.6-14.5h10.3l4,6.6,12.6-12.1H426.8Zm-0.9,16.9-5.7-3.4-4.7,4.8,1.2-6.9-5.7-3.4,6.4-.9,1.2-6.9,2.8,6.4,6.4-.9-4.7,4.8Z"/><path d="M118.3,369.6a137.7,137.7,0,0,0,30.7,12.8L146.6,370l-15.1-1.7,13.1-8.3-2.6-13c-10.8,2.1-17.4,5.5-17.8,9.9-0.1.7-1-.4-0.8,0.3l-5.5-1.6Z"/><path d="M193.1,385.6c6.2,0.6,12.8,1.1,19.9,1.3,10.6,0.4,48.9,1.8,56.2,1.6l-26.8-7.7c-44.6.3-74.8-14.8-74-23.7,0.6-6.4,16.9-10.3,39.9-10.5l-4-.5c-23.8-2.5-45.3-2.1-60.1.4l8.5,8.3,13.1-8.3-6.1,15.1,11.3,11L156,371l-4.7,11.5,10.3,1Z"/><polygon points="728 286.4 726.3 273.4 718.9 282.3 723.3 290.7 728 286.4"/><polygon points="697.5 314.2 721.4 292.4 713.6 288.5 705.1 298.7 706.5 285 699.6 281.6 697.5 314.2"/><polygon points="57.1 376.4 59.6 372.7 63.5 374 61.1 370.4 63.5 366.7 59.5 368.1 57.1 364.4 57.1 369 53.1 370.4 57.1 371.8 57.1 376.4"/><polygon points="50.6 361.2 50.4 357.7 48.6 360.7 45.5 359.8 47.6 362.5 45.8 365.5 48.9 364.2 50.9 366.9 50.7 363.4 53.7 362.1 50.6 361.2"/><polygon points="685.6 361.4 683.4 365.2 679.3 364.1 682 367.6 679.8 371.4 683.6 369.8 686.3 373.3 686 368.7 689.9 367.1 685.9 365.9 685.6 361.4"/><polygon points="691.9 359.9 691.9 363.4 693.8 360.5 696.9 361.6 695 358.8 696.9 355.9 693.8 357 691.9 354.2 691.9 357.7 688.8 358.8 691.9 359.9"/><path d="M10.2,300.5c1.5,8,26.9,14.2,66.9,18V301.6l-21.7-7.4,21.6-7.9V271.7C29.6,280.6,8.5,291.6,10.2,300.5Z"/><path d="M221.3,272.4L215,289.6l6.9,0.9,1.1-2.8,5.1,19.6V308l-8.4,7.1,8.2,0.2,19.8,1.2V308l10.3,0.3,18.9-28-0.4,3.2,6.9,4,21.4-8.2,37.9-.8,4.1,3.6v-3.7h4.5s-2.5-7.2-5.6-6.7-20.2.6-20.2,0.6l2.7-.8s-1.5-3.4-3.1-3.5c-4.2-.2-8.6-0.2-12.8-0.2l-0.5-2.4,1.4-2.1s-7.5,0-10.8,1.2l-0.7,2.6,2,0.6-1,.7c-3.1.1-1.1,0.2-3.1,0.3l-3.6-4.4-7,2.9-4.3-1.6-22.4,1.5,6,4.2,6.6,3.1-17.5,27.2h-8.6l3.3-32.8Zm5.5,10.1a6.3,6.3,0,1,1,6.3,6.8A6.6,6.6,0,0,1,226.8,282.5Zm7.1,29.7a3.4,3.4,0,1,1,3.1-3.4A3.3,3.3,0,0,1,233.9,312.3Zm7.3-9.4a4.6,4.6,0,1,1,4.2-4.5A4.4,4.4,0,0,1,241.2,302.9Zm52.7-36.1,2.4,2.6h-3.4l-2.4-1.1ZM280.6,279h8.5l-7.4,4.8-2.2-.9Z"/><ellipse cx="604.3" cy="255.9" rx="5.6" ry="6.1"/><ellipse cx="622.1" cy="297.4" rx="3.2" ry="3.5"/><ellipse cx="305.8" cy="300.5" rx="2.9" ry="3.1"/><ellipse cx="301.3" cy="402.5" rx="2.2" ry="2.4"/><ellipse cx="88.3" cy="335.4" rx="3.1" ry="3.4"/><ellipse cx="103.6" cy="345.2" rx="2.1" ry="2.2"/><ellipse cx="685.6" cy="252.3" rx="3.3" ry="3.6"/><ellipse cx="402.5" cy="359.2" rx="2.1" ry="2.2"/><ellipse cx="429" cy="328.3" rx="2.1" ry="2.2"/><path d="M279,367.2v2.5l12.7,17.1,0.2,0.5c10.9,10.5,22.4,18.6,37.4,29.8-7.7-8.2-10.1-34.8-6.9-38.3,8.8-9.8,31.3-1.4,54,7.4l40.1,5.3C346.1,360,275.9,336.2,279,367.2Zm28.8-9-1,11.2,9.5,4.5-10.1,2.4-1,11.2-5.2-9.8-10.1,2.4,6.9-8.4-5.2-9.8,9.5,4.5Z"/><path d="M262.6,361.5l1.1-.8Z"/><path d="M354.8,336.9l-12.7,2.3,5.5,5.8-34.3-9.7-6.4-23.5-35.2,28.5L253.6,325l-0.8-.3s-30.9,1-41.8,1l1,22.2s7,1.1,8.2,1.1l0.5-5.8c-0.1-.6,1.6.1,3.3,0.3h0c0.2,5,4,8.9,8.6,8.9a8.7,8.7,0,0,0,7.9-5.5c0.3,0.3,5,1.6,5.2,1.7l0.3,6.3,8,4.8v-8.2c1.4,2.7,3.5,4.5,6.4,4.5a6.8,6.8,0,0,0,2.6-.5l2,3.7v0.6l-2.4,1.6c-4.7,3.5-7.1,6.9-6.3,8.7s6.7,0.9,12.5-2.6c0.1,0.3,3.3,8.5,3.5,9.2h-0.1l-4.9-1.7-19.6,4.2L272,387l11.2,3.3,6.8-2-17.6-23.2c5.7-3.8,8.4-7.9,7.5-9.9s-6.4-.3-11.9,2.9l-2.5-4a10.1,10.1,0,0,0,3.1-7.4,10.9,10.9,0,0,0-.5-3.3v-0.4l9,8.2,29.7-23.8,3.3,11.5h0l-2.1-2.9-14.4,9.2,6,3.5,21.5,1.5,61,19.8-7-16ZM224,343.3h0v0Zm18.2-11a7.7,7.7,0,0,1,4.5-.1,3,3,0,0,1,.4,1.6,2.7,2.7,0,1,1-5.3,0A3,3,0,0,1,242.2,332.3Zm-9.8,15.9c-2.3,0-4.2-2.2-4.2-5s1.9-5,4.2-5,4.2,2.2,4.2,5S234.8,348.3,232.5,348.3Zm12.1-2.8a7,7,0,0,1-7.2-6.8,6.5,6.5,0,0,1,2-4.7c0,0.2,0,.3,0,0.5,0,3.4,2.3,6.2,5.2,6.2s5.2-2.8,5.2-6.2c0-.2,0-0.3,0-0.5a6.5,6.5,0,0,1,2,4.7A7,7,0,0,1,244.6,345.5Zm9.5-4.4V329.8l9.5,8-2.9-.5h-0.2C258.7,337.3,256.3,338,254.2,341.1Zm6.3,10.1c-2.3,0-4.2-2.2-4.2-5s1.9-5,4.2-5,4.2,2.2,4.2,5S262.8,351.2,260.5,351.2Zm15.9,7.1c1.4,1.8-1.4,3.5-4.7,5.7l-2.3-3.6C272.6,358.7,275.9,357.6,276.4,358.3Zm-9.6,4.7,1.5,3.4c-3.3,1.9-7.1,3.2-7.5,2.4S263.6,365.2,266.8,363Z"/><ellipse cx="462" cy="312.6" rx="3.2" ry="3.5"/><path d="M84.1,338.6L77.2,329c-10.7-1.2-13.8,0-13.8,0l12.3,7.2Z"/><path d="M34,347.4l17.7-8.1-12.4-2.2s2.4-5.1,13.1-5.3c9,0,5.3,5.2,5.3,5.2l15-.9-0.2-.6L60,329.4l-1.1-.3c0.2-.2-7.8,0-14.2,1.3,0,0-8.6,1.2-12.8,3.4s-6.3,4.1-6.5,4.2l10.5,1.3h2.5l-9.1,8.6Z"/><path d="M82.5,333.3a29.9,29.9,0,0,1,8.4-4.4l-11.7-.5Z"/><path d="M694.2,321.7l-0.4-16.6c1.7-21.6-11.3-41.9-34.1-52.5-19-8.9-50.7,14.7-47.6,46.5,0.5,5.6,1.5,11.7,1.5,11.7s-4-2.7-5.2-5.2a62.6,62.6,0,0,1-2.7-8.7c-2.3,6.2-1.3,9.9-1.3,9.9s4.7,24.2,8.4,31.9c0,0,17.8,12.1,16.9,10,0,0-30.8-57.9-4.7-69.6l-2.2,4.8,3.4,6.8,7.2,1.2,3.6-16.2a40.8,40.8,0,0,1,5,.1l-2.8,17,11.7,17,2.6-32,7.3,2.1-5.3,42.8,16.8-10V284l3.6,1.9,1.3,31.1h0L662.7,325l-2.3,6.2s10.9-2.5,16.8-1.2c4,0.8,13.6,3.7,13.6,3.7l15.7-13.5c-0.7,4.6.2,10.8,4,19.3s11.6,12.8,16,8.9a12.9,12.9,0,0,0,3.7-5c2.8,7.3,7.4,15.5,7.2,22.3s-2.3,11.7-4.2,16.1c-1.1,2.6-1.7,3.9-5.7,9.7s-36.2,19.1-71.2,5.9c-25.1-9.4-31.8-27.1-31.8-27.1L584.9,384s7.6,16.4,56.7,26.4c67.5,13.7,91.3-14.4,91.3-14.4l0.3,8.8c-16.1,11.7-48.8,20.6-93.7,10.5-53.1-12-60-28.4-60-28.4l-58.1,3.7,14.8,10s39.5,22,75.5,27.3c40,5.9,67.4,15.6,121.6-13.6l0.2,6.5c-44.1,19.1-64.2,23.4-117.5,12.6s-73-21.8-73-21.8l-73,3.1,1.1,0.4-15.7,39.5,19.5,4.4,47-22-11.2-8.2,1.4,0.5,3.1,0.7,11.9,3.2,10.3,2.1c21.5,4.5,54.8,11,70.2,13.7,58.2,10.1,67.6,12.4,126.2-16.6l1,43.2h-4.6V437.4L715,445.3l1.5,1.2-0.6,4-2.5,24.7h-5.7l2.1-11.4h-0.1l2.8-14.8c-13.3,5.3-28.2,8-35.1,9.1-18.7,3.9-60.8-4.5-60.8-4.5s5.9,3.6,7.7,7.4a4.5,4.5,0,0,1-1.1,5.8l22.3,8.4H632.4l-13.6-4.4c-2.9-.3-36.9,6.8-56.3,1.7l-13-5.9-15.5,5.5h0.6l-9.5,2.8-49.7-11.2-11.9,11.7h-6.1l13-13.1-20.9-5.5,1.4-4.3-11.6-15.1-10.7,30,2.9,3.1-13.1,5h-2.5L430.3,444l-7.6,1.3-9.6,9.9,3.4-12.8-20-18.1-13.2,29.2,6.3-33.5-71.6,34.8,24.6,6.7,21.2-8.5-12.2-3.1,25.9-12.1-5.2,19.9-11.2,6.1-3.7,5.7,13.7,0.7-0.7,5h-9.3c-4.3-6.8-23.7-13.8-47.5-16.6-20-2.4-37.5-1.2-45.9,2.6a169.8,169.8,0,0,1,27.3,1.2c20.1,2.4,37.1,7.5,44.5,12.8H324c-1-4.6-6.3-8.1-12.7-8.1s-11.7,3.5-12.7,8.1H295a13.2,13.2,0,0,1,.3-1.3c0.5-1.8,2.2-6.7,5.2-7.4l-0.2-.7s-15.5-3.1-25.1-1.5c-3,.5-1.8,3.2-4,4.9l-14.9-6.5-37.4,9.3,15,3h-7.1l-18.6-.7-16.9-7.4-2.1-1.2-3.6-2.5s2.3,10.4-27.3,11.3c-15,.4-15.3-0.3-22.8-0.7-8-2.1-22.3-6.6-22.9-10.8s3.4-7.7,3.4-7.7l-29.3,4.4,5,15.5H86.2L83,458.4H64l-2.1,16.9H57l4.1-17.1-29-8.5-5.3,25.7H22.3l4.1-27.8L7.6,437.8,0.3,475.2H0v5.1H749.7V316.2L728,291.4Zm27.7,13.2c-2.2,1.2-5.2-1.8-5.2-1.8-5.4-6.9-3.4-15.5-1.3-20.7l0.6-.5s4,7.7,8.8,18.4A5.7,5.7,0,0,1,721.9,334.9ZM475.1,453.7l-9.8-2.6,11.7-30,5,14.7h-0.1a4.6,4.6,0,1,0,4.2,4.5,4.9,4.9,0,0,0-.2-1.5l21.2-1.4Zm-69.8,11.6a8.1,8.1,0,0,1-.3,1.5,7.8,7.8,0,0,1-.5,1.3,7.4,7.4,0,0,1-2.2,2.6,6.4,6.4,0,0,1-7.7,0,7.4,7.4,0,0,1-2.2-2.6,7.8,7.8,0,0,1-.5-1.3,8.1,8.1,0,0,1-.3-1.5q0-.4,0-0.8t0-.8a8,8,0,0,1,.5-2.2l0.3-.7a6.6,6.6,0,0,1,12.1,0l0.3,0.7a8,8,0,0,1,.5,2.2q0,0.4,0,.8T405.4,465.4Zm252.3,9.9H646.1l10.9-10.6h7.5Zm31,0h-5.4l4.8-13.3,3.5-.7Z"/><path d="M421.8,325.1l-7.6,1.8a2.9,2.9,0,0,0-2.5-1.6,2.9,2.9,0,0,0-2.8,2.4c-3.7.3-6.3,1.3-8,3l-1.4-.3a4.1,4.1,0,0,0-3.9,4.2,4.3,4.3,0,0,0,2.2,3.8c-0.1,1-.1,2-0.1,3.2a11.1,11.1,0,0,0,2.5,6.4,3.1,3.1,0,0,0-.4,1.4,2.8,2.8,0,0,0,2.7,2.9,2.6,2.6,0,0,0,1.7-.6h0l3.9,5,2.3-2.8,9.4,5v-7l18.6,4.5-3-6.7-10.1-7.9,6.7-3.9-9.7-5c-1-1.7-.6-3-2.5-3.9h1Zm-0.8,17.1-6.4,1.5v6.7l-3.9-5.8-6.4,1.5,4-5.1-3.9-5.8,6.4,2.6,4-5.1v6.7Z"/></svg>