<?xml version="1.0" encoding="utf-8"?>
<!-- Generator: Adobe Illustrator 19.2.0, SVG Export Plug-In . SVG Version: 6.00 Build 0)  -->
<svg version="1.1" id="_x35_50881df-b659-4398-b82a-a618106d2635"
	 xmlns="http://www.w3.org/2000/svg" xmlns:xlink="http://www.w3.org/1999/xlink" x="0px" y="0px" viewBox="0 0 82 112.3"
	 style="enable-background:new 0 0 82 112.3;" xml:space="preserve">
<style type="text/css">
	.st0{fill:#FFFFFF;}
</style>
<title>github_ribbon</title>
<path class="st0" d="M0,0v112.3L41,95l41,17.2V0H0z M52.1,74.2c-1.5,0.5-2.5-0.2-2.5-1.8s0-4.8,0-7.3s-0.2-4.7-1.9-6.6l4.7-1.1
	c6.3-1.8,8.7-6.1,9.3-11.5c0.3-2,0.2-4-0.2-6c-0.4-1.6-1.1-3.2-2.2-4.5c-0.4-0.3-0.5-0.8-0.3-1.3c0.6-2.3,0.5-4.8-0.4-7
	c-0.1-0.2-0.3-0.4-0.6-0.4c-1.2,0.1-2.4,0.4-3.5,0.8c-1.4,0.6-2.6,1.4-4,2.1c-0.3,0.2-0.6,0.2-0.9,0.2c-4.8-1.3-9.9-1.3-14.7,0
	c-0.3,0-0.6,0-0.9-0.2c-1.9-1.3-4-2.2-6.2-2.8c-1.6-0.3-1.8-0.2-2.2,1.3c-0.6,2-0.7,4.2-0.1,6.3c0.1,0.2,0,0.5-0.1,0.7
	c-2.1,2.6-3.2,5.9-2.8,9.3c0.1,2.3,0.6,4.5,1.5,6.6c1.5,3.3,4.4,5.7,7.9,6.6l4.4,0.9c-1,1.1-1.6,2.4-1.9,3.9
	c-0.1,0.2-0.3,0.3-0.5,0.4c-3.4,1.3-6.6,0.7-8.7-2.8c-0.9-1.7-2.5-2.8-4.4-3h-0.8l-0.9,0.4l0.5,0.8l0.5,0.4c1.6,1.1,2.9,2.6,3.5,4.5
	c0.9,2.7,3.5,4.5,6.3,4.6c1.5,0,2.9,0,4.4-0.1c0,1.7,0.1,3.5,0,5.3s-1.2,1.7-2.5,1.2c-2.6-0.8-5-2.1-7.3-3.6
	C17,65.4,12,57.1,11.2,47.9c-1.6-17,10.9-32.1,27.9-33.7s32.1,10.9,33.7,27.9C74.1,56.3,65.5,69.5,52.1,74.2z"/>
</svg>
