<?xml version="1.0" encoding="utf-8"?>
<!-- Generator: Adobe Illustrator 19.2.0, SVG Export Plug-In . SVG Version: 6.00 Build 0)  -->
<svg version="1.1" id="f0b52d67-8057-4fa7-a7c1-2357670fcf93"
	 xmlns="http://www.w3.org/2000/svg" xmlns:xlink="http://www.w3.org/1999/xlink" x="0px" y="0px" viewBox="0 0 835 282.9"
	 style="enable-background:new 0 0 835 282.9;" xml:space="preserve">
<style type="text/css">
	.st0{fill:#FFFFFF;}
</style>
<title>ryder_emblem</title>
<g>
	<path class="st0" d="M415.7,120.6c1.9,0.1,3.8,0,5.7-0.2c1-0.1,2-0.6,2.7-1.4c0.8-0.8,1.2-1.9,1.1-3c0.1-1.1-0.3-2.3-1.1-3.1
		c-0.7-0.8-1.7-1.3-2.8-1.4c-2-0.2-4-0.3-6-0.2h-1.8v9.5h2.1L415.7,120.6z"/>
	<path class="st0" d="M439.6,261.2c0-5.6-2.2-11.1-6.2-15.1c6.8-0.9,25.5-7.7,42.8-16.7l39.1,14.8l31.3-20.3l-32.3-19.2l6.2-3.5
		h128.8l67.3-38.2H534.4c2.2-6,4.7-11.9,7.5-17.7h164.9l69-38.2H539.6c-1.1-7.7-2.8-12.2-5.2-19.4h232.4L835,43.2H510.8
		C488.1,17,454.9,0,417.5,0s-71.3,17.3-94,44.1H0l68.2,44.2h232.2c-2.3,7.2-4,11.7-5,19.4H59.2l69,38.2h164.9
		c3,5.7,5.6,11.6,7.8,17.7H118.4l67.3,38.2h124.4l5.1,3.1l-35.7,18.8l31.3,20.3l40.9-15.5c19.2,10.7,42.4,16.4,50.6,17.4
		c-8.3,8.6-8.1,22.4,0.5,30.7c8.6,8.3,22.4,8.1,30.7-0.5C437.4,272.1,439.5,266.8,439.6,261.2z M505,120c0,25.4-11.3,49.6-30.9,65.8
		l-16.9-51.9l45.5-33.1C504.2,107.1,505,113.5,505,120z M340.1,88.8C352,58.5,380.2,37.6,412.6,35l-17.5,53.8H340.1z M442.6,88.8
		l-17.5-53.9c33,2.1,61.8,23.1,73.9,53.9H442.6z M417.3,100.2h6.8l5.3,0.4l4.1,0.6c3.3,0.6,6.3,2.3,8.5,4.8c2.2,2.5,3.4,5.7,3.3,9
		c0,2.5-0.7,4.9-2,7c-1.3,2-3.1,3.6-5.3,4.6l6.9,11.4l5.6,12h-20l-10.8-20.3h-6.1v8.3l-0.2,12h-19v-12v-26h-6l4-11.9h25L417.3,100.2
		z M334.2,120c0-6.2,0.7-12.3,2-18.3l44.3,32.2L364,184.8C345.1,168.6,334.2,144.9,334.2,120z M375.7,193.2l43.2-31.4l43.9,31.9
		C435.9,209.6,402.4,209.4,375.7,193.2z"/>
</g>
</svg>
