<svg id="f0b52d67-8057-4fa7-a7c1-2357670fcf93" data-name="Layer 1" xmlns="http://www.w3.org/2000/svg" viewBox="0 0 835 282.9"><defs><style>.\36 4b89b27-5d46-4d0c-8fce-e3c50e82084f{opacity:0.49;}.a9799fe0-896f-4d1f-bc5e-56c9477d29c0{fill:#fff;}</style></defs><title>ryder_emblem</title><g class="64b89b27-5d46-4d0c-8fce-e3c50e82084f"><path class="a9799fe0-896f-4d1f-bc5e-56c9477d29c0" d="M414.7,120.6a42.2,42.2,0,0,0,5.7-.2,4.6,4.6,0,0,0,2.7-1.4,4.1,4.1,0,0,0,1.1-3,4.2,4.2,0,0,0-1.1-3.1,4.7,4.7,0,0,0-2.8-1.4,47.5,47.5,0,0,0-6-.2h-1.8v9.5h2.1Z"/><path class="a9799fe0-896f-4d1f-bc5e-56c9477d29c0" d="M439.6,261.2a21.7,21.7,0,0,0-6.2-15.1c6.8-.9,25.5-7.7,42.8-16.7l39.1,14.8,31.3-20.3-32.3-19.2,6.2-3.5H649.3l67.3-38.2H534.4a165.9,165.9,0,0,1,7.5-17.7H706.8l69-38.2H539.6c-1.1-7.7-2.8-12.2-5.2-19.4H766.8L835,43.2H510.8C488.1,17,454.9,0,417.5,0s-71.3,17.3-94,44.1H0L68.2,88.3H300.4c-2.3,7.2-4,11.7-5,19.4H59.2l69,38.2H293.1a155.2,155.2,0,0,1,7.8,17.7H118.4l67.3,38.2H310.1l5.1,3.1-35.7,18.8,31.3,20.3,40.9-15.5c19.2,10.7,42.4,16.4,50.6,17.4A21.7,21.7,0,1,0,439.6,261.2ZM505,120a85.3,85.3,0,0,1-30.9,65.8l-16.9-51.9,45.5-33.1A85.5,85.5,0,0,1,505,120ZM340.1,88.8A85.4,85.4,0,0,1,412.6,35L395.1,88.8h-55Zm102.5,0L425.1,34.9A85.4,85.4,0,0,1,499,88.8H442.6Zm-26.3,11.4h6.8l5.3,0.4,4.1,0.6a15.1,15.1,0,0,1,8.5,4.8,13.2,13.2,0,0,1,3.3,9,12.8,12.8,0,0,1-2,7,12,12,0,0,1-5.3,4.6l6.9,11.4h3.6V150H429.5l-10.8-20.3h-6.1V138h3.8V150h-27V138h4v-26h-4V100.1h27ZM334.2,120a85.6,85.6,0,0,1,2-18.3l44.3,32.2-16.5,50.9A85.2,85.2,0,0,1,334.2,120Zm41.5,73.2,43.2-31.4,43.9,31.9A84.9,84.9,0,0,1,375.7,193.2Z"/></g></svg>