<svg id="ac19dbf4-934a-4488-a25c-8270ac60735b" data-name="f0b52d67-8057-4fa7-a7c1-2357670fcf93" xmlns="http://www.w3.org/2000/svg" viewBox="0 0 835 282.7"><defs><style>.\37 ed26154-59fc-4ef4-99e3-1956c956ad3b{opacity:0.12;}.c59961a7-3a70-46d4-92c4-80cbbd6ed3ea{fill:#fff;}</style></defs><title>ryder_emblem</title><g class="7ed26154-59fc-4ef4-99e3-1956c956ad3b"><path class="c59961a7-3a70-46d4-92c4-80cbbd6ed3ea" d="M414.7,120.7a42.2,42.2,0,0,0,5.7-.2,4.6,4.6,0,0,0,2.7-1.4,4.1,4.1,0,0,0,1.1-3,4.2,4.2,0,0,0-1.1-3.1,4.7,4.7,0,0,0-2.8-1.4,47.5,47.5,0,0,0-6-.2h-1.8v9.5h2.1v-0.2Z" transform="translate(0 -0.1)"/><path class="c59961a7-3a70-46d4-92c4-80cbbd6ed3ea" d="M439.6,261.3a21.7,21.7,0,0,0-6.2-15.1c6.8-.9,25.5-7.7,42.8-16.7l39.1,14.8L546.6,224l-32.3-19.2,6.2-3.5H649.3l67.3-38.2H534.4a165.9,165.9,0,0,1,7.5-17.7H706.8l69-38.2H539.6c-1.1-7.7-2.8-12.2-5.2-19.4H766.8L835,43.3H510.8C488.1,17.1,454.9.1,417.5,0.1s-71.3,17.3-94,44.1H0L68.2,88.4H300.4c-2.3,7.2-4,11.7-5,19.4H59.2l69,38.2H293.1a155.2,155.2,0,0,1,7.8,17.7H118.4l67.3,38.2H310.1l5.1,3.1-35.7,18.8,31.3,20.3,40.9-15.5c19.2,10.7,42.4,16.4,50.6,17.4A21.7,21.7,0,1,0,439.6,261.3ZM505,120.1a85.3,85.3,0,0,1-30.9,65.8L457.2,134l45.5-33.1A85.5,85.5,0,0,1,505,120.1ZM340.1,88.9a85.4,85.4,0,0,1,72.5-53.8L395.1,88.9h-55Zm102.5,0L425.1,35A85.4,85.4,0,0,1,499,88.9H442.6Zm-26.3,11.4h6.8l5.3,0.4,4.1,0.6a15.1,15.1,0,0,1,8.5,4.8,13.2,13.2,0,0,1,3.3,9,12.8,12.8,0,0,1-2,7,12,12,0,0,1-5.3,4.6l6.9,11.4h3.6v12h-18l-10.8-20.3h-6.1v8.3h3.8v12h-27v-12h4v-26h-4V100.2h26.9Zm-82.1,19.8a85.6,85.6,0,0,1,2-18.3L380.5,134,364,184.9A85.2,85.2,0,0,1,334.2,120.1Zm41.5,73.2,43.2-31.4,43.9,31.9A84.9,84.9,0,0,1,375.7,193.3Z" transform="translate(0 -0.1)"/></g></svg>