<svg id="3e16d55f-1819-4c83-bf0c-7c2878d154e7" data-name="ac19dbf4-934a-4488-a25c-8270ac60735b" xmlns="http://www.w3.org/2000/svg" viewBox="0 0 827.6 151.5"><defs><style>.\30 599abab-b317-444b-8a00-b1c27fa44eda{fill:#fff;}</style></defs><title>ryder_emblem_</title><path class="0599abab-b317-444b-8a00-b1c27fa44eda" d="M417.3,65.4a47.5,47.5,0,0,0-6-.2h-1.8v9.5l2.1-.2h0.1a42.2,42.2,0,0,0,5.7-.2,4.6,4.6,0,0,0,2.7-1.4,4.1,4.1,0,0,0,1.1-3,4.2,4.2,0,0,0-1.1-3.1A4.7,4.7,0,0,0,417.3,65.4Z"/><path class="0599abab-b317-444b-8a00-b1c27fa44eda" d="M531.4,116.9a165.9,165.9,0,0,1,7.5-17.7H703.8l69-38.2H536.6c-1.1-7.7-2.8-12.2-5.2-19.4H763.8L827.6,0H459A85.4,85.4,0,0,1,496,42.7H439.6L427.7,11H404L392.1,42.7h-55A85.4,85.4,0,0,1,374,0H0L65.2,42.2H297.4c-2.3,7.2-4,11.7-5,19.4H56.2l69,38.2H290.1a155.2,155.2,0,0,1,7.8,17.7H115.4l59.8,33.9H380.8a85,85,0,0,1-8.1-4.3l43.2-31.4,43.9,31.9q-3.6,2.1-7.3,3.8H652.7l60.8-34.5H531.4ZM361,138.7a85.2,85.2,0,0,1-27.8-83.1l44.3,32.2Zm29.4-72.8h-7l5-11.9h31.7l5.3,0.4,4.1,0.6a15.1,15.1,0,0,1,8.5,4.8,13.2,13.2,0,0,1,3.3,9,12.8,12.8,0,0,1-2,7,12,12,0,0,1-5.3,4.6l0.9,2.4,12.6,21h-21L415.7,83.6h-6.1l-0.2,20.3h-19v-38Zm80.7,73.8L454.2,87.8l45.5-33.1A84.7,84.7,0,0,1,471.1,139.7Z"/></svg>