<svg id="f07a7bad-cd71-4c9f-a8da-170f47dd3fed" data-name="ac19dbf4-934a-4488-a25c-8270ac60735b" xmlns="http://www.w3.org/2000/svg" viewBox="0 0 827.6 151.5"><defs><style>.\39 0caead2-9a59-4828-b729-5a8da1790e20{fill:#fff;}</style></defs><title>ryder_emblem_</title><path class="90caead2-9a59-4828-b729-5a8da1790e20" d="M417.3,65.4a47.5,47.5,0,0,0-6-.2h-1.8v9.5l2.1-.2h0.1a42.2,42.2,0,0,0,5.7-.2,4.6,4.6,0,0,0,2.7-1.4,4.1,4.1,0,0,0,1.1-3,4.2,4.2,0,0,0-1.1-3.1A4.7,4.7,0,0,0,417.3,65.4Z"/><path class="90caead2-9a59-4828-b729-5a8da1790e20" d="M531.4,116.9a165.9,165.9,0,0,1,7.5-17.7H703.8l69-38.2H536.6c-1.1-7.7-2.8-12.2-5.2-19.4H763.8L827.6,0H459A85.4,85.4,0,0,1,496,42.7H439.6L425.7,0H406L392.1,42.7h-55A85.4,85.4,0,0,1,374,0H0L65.2,42.2H297.4c-2.3,7.2-4,11.7-5,19.4H56.2l69,38.2H290.1a155.2,155.2,0,0,1,7.8,17.7H115.4l59.8,33.9H380.8a85,85,0,0,1-8.1-4.3l43.2-31.4,43.9,31.9q-3.6,2.1-7.3,3.8H652.7l60.8-34.5H531.4ZM361,138.7a85.2,85.2,0,0,1-27.8-83.1l44.3,32.2Zm29.4-72.8h-4V54h33.7l5.3,0.4,4.1,0.6a15.1,15.1,0,0,1,8.5,4.8,13.2,13.2,0,0,1,3.3,9,12.8,12.8,0,0,1-2,7,12,12,0,0,1-5.3,4.6l6.9,11.4h3.6v12h-18L415.7,83.6h-6.1v8.3h3.8v12h-27v-12h4v-26Zm80.7,73.8L454.2,87.8l45.5-33.1A84.7,84.7,0,0,1,471.1,139.7Z"/></svg>